<?xml version="1.0" standalone="no"?>
<!DOCTYPE svg PUBLIC "-//W3C//DTD SVG 20010904//EN"
 "http://www.w3.org/TR/2001/REC-SVG-20010904/DTD/svg10.dtd">
<svg version="1.0" xmlns="http://www.w3.org/2000/svg"
 width="300.000000pt" height="227.000000pt" viewBox="0 0 300.000000 227.000000"
 preserveAspectRatio="xMidYMid meet">

<g transform="translate(0.000000,227.000000) scale(0.100000,-0.100000)"
fill="#000000" stroke="none">
<path d="M277 2035 l6 -235 -31 0 c-28 0 -32 -4 -32 -26 0 -14 4 -23 8 -20 8
5 9 0 14 -66 2 -20 7 -40 11 -44 12 -12 8 -24 -8 -24 -9 0 -15 -9 -15 -22 -1
-22 -2 -21 -31 10 -35 39 -51 35 -39 -9 12 -41 4 -57 -25 -51 -27 5 -61 58
-42 65 7 2 2 9 -10 15 -21 12 -93 5 -75 -7 17 -11 22 -69 7 -75 -21 -8 -19
-25 3 -20 9 2 37 0 62 -5 l45 -9 -62 -1 -63 -1 0 -38 c0 -35 2 -38 27 -37 19
0 31 -7 40 -25 12 -23 11 -25 -14 -30 -25 -5 -26 -6 -9 -22 11 -11 15 -25 11
-38 -9 -28 -18 -25 -35 13 -11 25 -15 28 -18 13 -2 -10 2 -23 10 -28 10 -7 10
-11 1 -15 -9 -3 -13 -30 -13 -85 l0 -80 84 7 83 7 11 -109 c7 -59 15 -141 18
-180 7 -77 8 -78 47 -64 23 9 23 11 15 83 -5 40 -7 93 -4 118 4 25 6 66 6 91
-1 30 5 50 15 59 9 8 23 26 31 42 10 19 22 28 39 28 14 0 25 5 25 10 0 6 15
10 34 10 l34 0 7 -107 c11 -158 20 -170 18 -23 l-2 130 24 0 c18 0 25 -7 30
-30 4 -16 4 -34 1 -39 -9 -14 20 -21 94 -21 50 0 78 5 102 20 18 10 75 27 125
37 96 19 107 27 92 69 -13 38 0 71 33 78 48 10 58 7 58 -13 0 -11 5 -23 10
-26 6 -3 10 -19 10 -36 0 -22 5 -29 20 -29 11 0 29 5 39 12 18 11 18 13 -1 57
-10 25 -25 49 -31 53 -17 11 1 10 22 -2 10 -5 24 -30 31 -55 16 -57 43 -60 84
-9 32 40 79 64 126 64 l31 0 -36 -31 c-20 -18 -42 -44 -50 -59 -12 -23 -23
-28 -97 -39 -45 -7 -87 -15 -91 -18 -5 -3 21 -33 57 -67 58 -53 69 -70 89
-131 23 -69 24 -70 61 -73 21 -2 36 0 34 5 -40 82 -48 110 -48 171 0 112 56
202 125 202 41 0 63 -17 90 -70 l25 -50 90 0 c88 0 91 1 100 26 6 14 22 41 36
60 l26 34 -23 0 c-13 0 -31 5 -39 10 -10 7 0 8 33 4 53 -7 54 -5 36 59 -12 45
-13 43 24 52 18 5 27 3 27 -5 0 -6 -4 -9 -9 -5 -16 9 -24 -15 -11 -30 16 -19
30 -19 30 -1 0 8 4 16 9 18 9 3 193 261 363 508 l59 85 -48 12 c-27 7 -50 8
-53 3 -19 -30 -176 -43 -186 -15 -5 12 -34 14 -180 12 -96 -1 -174 -3 -174 -4
0 -1 11 -13 25 -27 14 -14 25 -29 25 -34 0 -15 -39 -22 -127 -22 -76 0 -83 2
-83 19 0 11 10 27 22 35 21 15 17 16 -70 16 -55 0 -92 -4 -92 -10 0 -14 -47
-11 -90 4 l-35 13 45 7 c25 3 166 11 315 17 148 6 273 13 277 16 17 10 7 63
-17 91 -18 21 -25 42 -25 71 l0 41 -765 0 -765 0 7 -235z m898 15 c8 -16 15
-39 15 -52 -1 -23 -1 -23 -16 -3 -16 20 -16 20 -9 -2 6 -22 4 -23 -63 -23 -39
0 -72 4 -74 10 -1 5 -64 -51 -138 -125 -103 -103 -141 -135 -160 -134 -21 0
-1 23 128 148 106 103 152 154 152 169 0 28 29 41 97 41 48 1 54 -1 68 -29z
m573 -37 c-10 -2 -28 -2 -40 0 -13 2 -5 4 17 4 22 1 32 -1 23 -4z m-1428 -143
c0 -5 -2 -10 -4 -10 -3 0 -8 5 -11 10 -3 6 -1 10 4 10 6 0 11 -4 11 -10z m659
-71 c18 -22 44 -44 58 -50 13 -5 22 -13 18 -19 -3 -5 -12 -7 -19 -4 -8 3 -17
1 -21 -5 -3 -6 -11 -11 -17 -11 -6 0 -3 9 6 19 19 21 23 20 -66 21 -19 1 -25
5 -21 15 3 9 -1 15 -10 15 -22 0 -29 27 -11 45 25 25 49 17 83 -26z m-612 -31
c-3 -8 -6 -5 -6 6 -1 11 2 17 5 13 3 -3 4 -12 1 -19z m48 -17 c-3 -6 -11 -11
-17 -11 -6 0 -6 6 2 15 14 17 26 13 15 -4z m228 -55 c-15 -18 -32 -31 -36 -28
-5 2 -25 -9 -45 -25 -58 -46 -70 -49 -32 -9 27 29 119 92 138 95 2 1 -9 -14
-25 -33z m-249 -1 c3 -8 1 -15 -4 -15 -6 0 -10 7 -10 15 0 8 2 15 4 15 2 0 6
-7 10 -15z m515 -1 c-12 -15 -20 -68 -9 -61 3 2 20 10 38 17 17 8 32 20 32 27
0 21 21 15 27 -7 3 -11 14 -20 24 -20 10 0 21 -4 24 -10 4 -6 -9 -10 -31 -10
-21 0 -45 -6 -53 -14 -9 -7 -26 -17 -38 -20 -18 -6 -23 -3 -23 9 0 11 -5 15
-16 11 -8 -3 -13 -2 -9 3 8 13 -17 20 -37 10 -29 -15 6 40 39 61 35 23 49 25
32 4z m-477 -36 c-6 -6 -12 -6 -16 1 -4 6 -2 11 3 11 6 0 12 8 12 18 1 15 2
15 6 -2 3 -10 0 -23 -5 -28z m245 -20 c-64 -64 -76 -72 -73 -54 3 20 35 55 71
77 47 30 48 22 2 -23z m-257 -34 c0 -8 -4 -12 -10 -9 -5 3 -10 10 -10 16 0 5
5 9 10 9 6 0 10 -7 10 -16z m590 -19 c14 -19 14 -19 -2 -6 -10 7 -18 18 -18
24 0 6 1 8 3 6 1 -2 9 -13 17 -24z m-447 -10 c-3 -9 -8 -14 -10 -11 -3 3 -2 9
2 15 9 16 15 13 8 -4z m107 -15 c0 -5 -2 -10 -4 -10 -3 0 -8 5 -11 10 -3 6 -1
10 4 10 6 0 11 -4 11 -10z m-220 -45 c0 -8 -10 -20 -22 -26 -13 -6 -20 -8 -16
-4 4 5 3 14 -4 22 -8 11 -7 12 6 7 11 -4 16 -1 16 11 0 9 5 13 10 10 6 -3 10
-13 10 -20z m-232 8 c-10 -2 -28 -2 -40 0 -13 2 -5 4 17 4 22 1 32 -1 23 -4z
m670 -35 c2 -9 -4 -18 -13 -21 -11 -5 -15 0 -15 19 0 28 23 29 28 2z m137 -9
c4 -12 3 -25 -3 -31 -15 -15 -46 -5 -50 15 -4 21 15 23 20 2 2 -10 7 -12 18
-5 13 8 12 11 -5 24 -17 13 -18 15 -3 16 9 0 20 -9 23 -21z m55 -40 c0 -27 -2
-30 -15 -19 -8 7 -15 21 -15 31 0 11 7 19 15 19 10 0 15 -10 15 -31z m-633 5
c5 -15 -43 -73 -148 -181 -65 -67 -97 -93 -115 -93 -29 0 -29 -3 -4 44 15 30
17 43 9 58 -6 11 -8 27 -4 36 6 15 8 15 21 -2 8 -11 14 -29 14 -40 0 -15 3
-17 9 -8 5 8 2 30 -6 54 -12 37 -12 42 4 54 26 20 57 13 61 -14 4 -28 22 -19
22 11 0 18 2 19 10 7 7 -12 13 -11 34 9 14 13 23 27 21 31 -2 4 7 13 20 20 14
7 25 17 25 23 0 11 23 4 27 -9z m365 -16 c-8 -8 -9 -4 -5 13 4 13 8 18 11 10
2 -7 -1 -18 -6 -23z m313 12 c-3 -5 -12 -10 -18 -10 -7 0 -6 4 3 10 19 12 23
12 15 0z m-530 -50 c-27 -27 -54 -50 -59 -50 -6 0 12 23 39 50 27 28 54 50 59
50 6 0 -12 -22 -39 -50z m295 15 c0 -9 -10 -13 -27 -11 -32 4 -42 22 -16 28
25 6 43 -2 43 -17z m0 -35 c0 -5 -12 -10 -26 -10 -14 0 -23 4 -19 10 3 6 15
10 26 10 10 0 19 -4 19 -10z m-450 -50 c0 -20 -5 -30 -15 -30 -15 0 -21 40 -8
53 14 15 23 6 23 -23z m450 15 c0 -8 -4 -15 -10 -15 -5 0 -10 7 -10 15 0 8 5
15 10 15 6 0 10 -7 10 -15z m195 -23 c-6 -7 -35 18 -35 31 0 5 9 2 20 -8 11
-10 18 -20 15 -23z m-575 -12 c0 -23 -5 -30 -19 -30 -25 0 -32 11 -24 38 3 13
13 22 24 22 14 0 19 -7 19 -30z m571 -17 c13 -16 12 -17 -3 -4 -10 7 -18 15
-18 17 0 8 8 3 21 -13z m-406 -13 c3 -5 1 -10 -4 -10 -6 0 -11 5 -11 10 0 6 2
10 4 10 3 0 8 -4 11 -10z"/>
<path d="M856 1655 c4 -8 12 -15 20 -15 19 0 18 16 -2 24 -22 9 -24 8 -18 -9z"/>
<path d="M244 1323 c10 -11 36 -12 36 -2 0 5 -10 9 -22 9 -12 0 -18 -3 -14 -7z"/>
<path d="M2837 2203 c-10 -101 -8 -148 5 -161 9 -9 -5 -12 -65 -12 -60 0 -79
-3 -83 -15 -7 -17 -44 -21 -44 -5 0 6 -7 10 -16 10 -8 0 -12 4 -9 10 10 16
-34 21 -159 18 l-119 -3 -170 -245 c-239 -345 -437 -637 -437 -645 0 -11 24
18 85 103 l59 82 50 0 51 0 -31 -19 c-29 -18 -72 -87 -61 -98 3 -3 21 0 39 6
18 6 50 12 70 13 21 2 38 8 38 13 0 6 4 5 8 -2 11 -17 167 -3 305 27 54 12 37
-1 -36 -27 l-62 -21 49 0 c30 0 51 -4 57 -13 15 -24 4 -34 -35 -34 -49 0 -76
11 -76 30 0 8 -2 15 -5 15 -2 0 -89 -28 -192 -61 -166 -54 -192 -66 -222 -98
-36 -38 -81 -127 -100 -198 -19 -71 -31 -50 -31 55 1 85 4 102 25 137 29 47
33 80 9 71 -9 -3 -18 -6 -20 -6 -2 0 -4 -8 -4 -19 0 -22 -51 -47 -76 -37 -15
6 -16 -6 -13 -111 l4 -118 -50 5 c-27 3 -75 5 -107 5 -31 0 -54 4 -51 8 3 5
-12 7 -33 5 -37 -3 -39 -5 -42 -38 -1 -19 -5 -45 -7 -57 -5 -22 -6 -23 -48 -6
-23 9 -45 21 -48 26 -10 14 -129 22 -129 8 0 -6 -3 -10 -7 -9 -5 1 -18 -3 -29
-10 -12 -6 -24 -8 -28 -5 -3 3 -6 1 -6 -5 0 -7 5 -12 11 -12 6 0 9 -6 7 -12
-3 -7 -18 -12 -35 -12 -23 1 -33 -4 -36 -17 -4 -16 1 -19 31 -20 21 0 30 -3
22 -6 -8 -3 -26 -14 -39 -24 l-24 -19 39 0 c29 0 35 3 24 10 -21 13 -12 13
139 -5 351 -42 355 -42 397 -23 88 39 88 6 1 -41 l-64 -34 -169 22 c-93 12
-288 37 -434 56 -146 19 -371 47 -500 64 -129 17 -255 33 -278 36 l-44 5 7
-53 c10 -84 11 -85 63 -92 26 -4 52 -8 58 -10 9 -3 25 -112 29 -192 0 -7 24
-29 53 -48 49 -34 67 -63 40 -67 -7 0 -17 -2 -23 -3 -5 -2 -20 -3 -32 -4 -88
-4 96 -52 277 -71 57 -7 123 -18 145 -27 22 -8 63 -16 90 -18 28 -1 82 -7 121
-13 84 -13 424 -81 434 -87 29 -18 218 -38 375 -39 99 -1 202 -6 229 -11 36
-6 47 -5 42 3 -5 8 1 12 14 12 12 0 18 -5 15 -10 -3 -6 -1 -10 4 -10 6 0 11 9
11 20 0 11 5 20 10 20 6 0 10 -9 10 -20 0 -18 7 -20 94 -19 81 0 94 3 89 16
-4 10 -15 13 -34 11 -15 -3 -25 0 -22 4 3 5 -1 9 -8 7 -37 -5 -70 2 -63 13 5
8 -4 9 -35 4 -54 -8 -94 1 -86 21 4 12 -1 14 -27 9 -58 -11 -88 -13 -88 -5 0
4 31 28 70 54 38 25 73 51 76 57 4 6 -44 -24 -106 -67 -100 -69 -134 -85 -116
-57 3 5 47 38 98 73 51 35 98 69 103 76 13 17 137 103 148 103 10 0 89 53 110
74 8 8 52 40 98 72 46 32 134 91 194 133 61 41 143 97 184 125 l73 49 -5 54
c-5 47 -3 53 13 53 12 0 21 10 25 30 9 42 -1 53 -41 45 -21 -3 -34 -2 -34 5 0
5 17 10 38 11 20 0 31 3 25 6 -7 2 -13 9 -13 14 0 5 6 8 13 6 9 -1 13 21 15
81 3 79 4 82 27 82 13 0 26 4 29 9 3 4 26 7 51 6 l45 -2 0 548 -1 549 -78 0
-78 0 -6 -67z m-319 -990 c-10 -2 -26 -2 -35 0 -10 3 -2 5 17 5 19 0 27 -2 18
-5z m-88 -17 c0 -9 -30 -14 -35 -6 -4 6 3 10 14 10 12 0 21 -2 21 -4z m294
-22 c9 -3 13 -11 10 -16 -5 -7 5 -9 25 -6 24 4 31 1 31 -13 0 -22 -20 -29 -81
-29 -48 0 -49 1 -49 29 0 23 5 31 23 34 12 2 23 5 24 6 1 0 8 -2 17 -5z m92
-41 c-10 -10 -19 5 -10 18 6 11 8 11 12 0 2 -7 1 -15 -2 -18z m-493 1 c39 -6
47 -10 47 -28 0 -21 -4 -21 -147 -22 -134 -1 -148 1 -166 19 -14 14 -16 19 -5
15 9 -4 21 -1 27 5 6 6 29 10 50 9 22 -2 43 2 46 9 7 11 26 10 148 -7z m263
-21 c-10 -10 -19 5 -10 18 6 11 8 11 12 0 2 -7 1 -15 -2 -18z m194 -103 c24
-15 6 -20 -35 -9 -21 6 -49 9 -61 6 -13 -2 -24 0 -24 4 0 12 101 11 120 -1z
m-445 -10 c16 -7 11 -9 -20 -9 -22 0 -49 4 -60 9 -16 7 -11 9 20 9 22 0 49 -4
60 -9z m235 -9 c0 -5 -9 -11 -20 -14 -20 -5 -26 3 -13 16 9 10 33 8 33 -2z
m-210 -31 c0 -5 -10 -11 -22 -11 -17 -1 -19 -2 -5 -6 19 -5 22 -18 7 -28 -6
-4 -46 -7 -89 -8 -44 -1 -77 -5 -74 -9 2 -5 -3 -8 -11 -8 -9 0 -16 -4 -16 -9
0 -5 -34 -26 -76 -46 -62 -31 -81 -36 -102 -29 -14 5 -27 15 -30 23 -3 9 0 12
10 8 9 -3 20 -1 26 5 5 5 20 11 33 13 36 5 112 35 129 50 19 17 85 35 130 35
24 0 31 3 21 9 -11 7 -10 10 5 14 34 9 64 7 64 -3z m150 -40 c-27 -7 -52 -2
-45 9 2 4 19 5 37 3 31 -5 32 -6 8 -12z m-95 -20 c-3 -5 3 -10 14 -10 25 0 27
-13 6 -30 -8 -7 -15 -19 -15 -27 0 -11 -5 -13 -17 -8 -10 4 -48 15 -86 23 -73
18 -85 39 -19 34 23 -2 53 3 69 12 32 18 57 21 48 6z m380 -50 c3 -5 1 -10 -4
-10 -6 0 -11 5 -11 10 0 6 2 10 4 10 3 0 8 -4 11 -10z m-86 -26 c2 -2 2 -6 0
-9 -8 -7 -49 7 -49 17 0 8 38 2 49 -8z m-771 -9 c10 -10 -4 -14 -61 -20 -59
-6 -69 -1 -40 20 17 12 89 12 101 0z m395 8 c-7 -2 -13 -12 -13 -21 0 -15 -2
-15 -10 -2 -9 15 4 30 25 29 6 0 4 -3 -2 -6z m427 -23 c12 -8 10 -10 -9 -10
-27 0 -74 -26 -191 -104 -117 -78 -720 -466 -807 -520 -7 -4 -13 -3 -13 2 0 8
204 143 333 221 20 12 37 28 37 35 0 7 18 18 40 25 58 17 56 27 -6 27 -30 0
-54 -5 -54 -10 0 -5 -3 -7 -6 -3 -4 3 -21 -1 -38 -9 l-31 -15 25 20 c14 11 43
30 65 42 34 19 38 20 25 4 -13 -15 -9 -15 29 4 40 21 43 21 37 5 -4 -10 -4
-15 0 -11 4 4 13 2 21 -4 10 -9 13 -8 13 5 0 10 -4 14 -10 11 -5 -3 -10 -1
-10 4 0 6 17 10 38 9 42 -1 96 28 88 48 -6 14 52 54 78 54 9 0 39 10 66 23 44
20 50 25 50 54 0 21 7 37 22 47 28 20 38 20 38 1 0 -24 32 -17 90 20 62 39 60
38 80 25z m-262 -121 c-16 -10 -141 -39 -146 -34 -9 9 60 35 93 35 29 0 38 5
47 28 l12 27 4 -24 c2 -13 -2 -27 -10 -32z m-274 26 c-7 -16 -24 -21 -24 -6 0
8 7 13 27 20 1 1 0 -6 -3 -14z m-94 -35 c-20 -13 -33 -13 -25 0 3 6 14 10 23
10 15 0 15 -2 2 -10z m180 -90 c0 -5 -7 -10 -15 -10 -8 0 -15 -5 -15 -12 0 -6
-3 -8 -6 -5 -8 8 14 37 27 37 5 0 9 -4 9 -10z m-1935 -21 l40 -12 -54 -18
c-30 -11 -57 -17 -59 -14 -6 6 19 55 27 55 3 0 24 -5 46 -11z m230 -69 c-3 -5
-10 -10 -16 -10 -5 0 -9 5 -9 10 0 6 7 10 16 10 8 0 12 -4 9 -10z m69 -5 c-4
-8 -13 -15 -21 -15 -9 0 -13 -6 -9 -15 3 -8 1 -15 -4 -15 -6 0 -10 4 -10 10 0
5 -8 7 -17 4 -11 -4 -14 -3 -7 3 6 4 13 16 17 26 4 10 17 17 31 17 18 0 24 -4
20 -15z m96 -31 c0 -2 -11 -4 -25 -4 -14 0 -25 4 -25 9 0 4 11 6 25 3 14 -2
25 -6 25 -8z m140 -46 c0 -16 -3 -19 -11 -11 -6 6 -8 16 -5 22 11 17 16 13 16
-11z m-40 2 c0 -5 -7 -10 -16 -10 -8 0 -12 5 -9 10 3 6 10 10 16 10 5 0 9 -4
9 -10z m296 -5 c57 -9 120 -23 140 -31 33 -14 35 -17 22 -30 -13 -13 -27 -14
-94 -4 -179 25 -209 33 -212 58 -4 27 3 27 144 7z m754 -26 c-14 -11 -45 -31
-70 -44 -25 -13 -58 -33 -75 -44 -16 -12 -34 -21 -40 -21 -5 0 37 29 95 65
109 67 133 79 90 44z m-1458 -8 c57 -11 177 -32 268 -47 91 -14 172 -31 180
-36 10 -6 3 -7 -23 -3 -20 3 -54 8 -75 11 -20 2 -91 13 -157 25 -162 28 -230
38 -295 46 -30 3 -62 9 -70 14 -27 15 65 10 172 -10z m828 -145 c0 -11 -19
-15 -25 -6 -3 5 1 10 9 10 9 0 16 -2 16 -4z m63 -13 c-7 -2 -19 -2 -25 0 -7 3
-2 5 12 5 14 0 19 -2 13 -5z m170 -23 c65 -11 120 -20 123 -20 2 0 4 -4 4 -10
0 -14 -46 -12 -115 6 -33 8 -69 15 -80 15 -10 0 -24 4 -30 9 -5 4 -21 10 -35
13 -19 3 -20 5 -5 6 11 0 73 -8 138 -19z"/>
<path d="M2205 1120 c-3 -5 1 -10 9 -10 9 0 16 5 16 10 0 6 -4 10 -9 10 -6 0
-13 -4 -16 -10z"/>
<path d="M2164 2124 c3 -9 6 -24 6 -35 0 -10 5 -19 10 -19 11 0 13 30 4 54 -3
9 -11 16 -16 16 -6 0 -7 -7 -4 -16z"/>
<path d="M1890 2120 c0 -5 5 -10 10 -10 6 0 10 5 10 10 0 6 -4 10 -10 10 -5 0
-10 -4 -10 -10z"/>
<path d="M1962 2100 c0 -14 2 -19 5 -12 2 6 2 18 0 25 -3 6 -5 1 -5 -13z"/>
<path d="M2683 2103 c9 -2 23 -2 30 0 6 3 -1 5 -18 5 -16 0 -22 -2 -12 -5z"/>
<path d="M2468 2093 c12 -2 32 -2 45 0 12 2 2 4 -23 4 -25 0 -35 -2 -22 -4z"/>
<path d="M2568 2093 c7 -3 16 -2 19 1 4 3 -2 6 -13 5 -11 0 -14 -3 -6 -6z"/>
<path d="M2283 2083 c9 -2 23 -2 30 0 6 3 -1 5 -18 5 -16 0 -22 -2 -12 -5z"/>
<path d="M55 1700 c-18 -19 -17 -20 3 -20 15 0 22 6 22 20 0 11 -2 20 -3 20
-2 0 -12 -9 -22 -20z"/>
<path d="M127 1701 c-3 -14 0 -21 9 -21 16 0 18 9 5 28 -6 10 -10 9 -14 -7z"/>
<path d="M970 1236 c0 -9 5 -16 10 -16 6 0 10 4 10 9 0 6 -4 13 -10 16 -5 3
-10 -1 -10 -9z"/>
<path d="M868 1140 c-44 -37 -82 -102 -104 -181 l-17 -60 -85 7 -85 7 7 -88
c3 -48 8 -91 11 -95 3 -4 38 -11 77 -15 40 -3 85 -8 99 -11 l25 -5 1 108 c0
123 14 173 81 291 23 40 38 72 34 72 -4 0 -24 -14 -44 -30z"/>
<path d="M1354 1076 c-3 -7 -4 -36 -2 -63 l3 -50 32 63 32 64 -30 0 c-16 0
-32 -6 -35 -14z"/>
<path d="M471 934 c0 -11 3 -14 6 -6 3 7 2 16 -1 19 -3 4 -6 -2 -5 -13z"/>
<path d="M481 894 c0 -11 3 -14 6 -6 3 7 2 16 -1 19 -3 4 -6 -2 -5 -13z"/>
<path d="M880 894 c0 -6 12 -28 26 -50 14 -21 30 -47 34 -59 7 -17 9 -17 9 -2
1 9 6 17 12 17 7 0 -1 10 -16 22 -15 12 -36 35 -46 52 -10 17 -19 26 -19 20z"/>
<path d="M491 863 c-1 -18 39 -122 49 -128 5 -3 -2 21 -14 52 -13 32 -26 65
-29 73 -3 8 -6 10 -6 3z"/>
<path d="M1010 840 c0 -5 5 -10 11 -10 5 0 7 5 4 10 -3 6 -8 10 -11 10 -2 0
-4 -4 -4 -10z"/>
<path d="M2830 826 c0 -13 8 -30 17 -37 15 -12 16 -12 10 4 -3 9 -2 17 4 17 6
0 6 7 -1 20 -15 27 -30 25 -30 -4z"/>
<path d="M988 783 l4 -22 29 21 c16 12 29 22 29 23 0 1 -15 1 -33 1 -29 -1
-33 -4 -29 -23z"/>
<path d="M325 794 c-119 -32 -129 -37 -110 -45 31 -12 99 -10 117 4 17 13 11
46 -7 41z"/>
<path d="M2782 741 c-22 -16 -44 -35 -48 -42 -4 -7 6 -3 23 9 17 12 38 22 47
22 18 0 31 -40 21 -68 -3 -11 -1 -23 5 -27 6 -3 8 -10 5 -15 -7 -11 22 -33 34
-25 15 9 3 123 -16 151 -19 30 -22 30 -71 -5z"/>
<path d="M2836 505 c-9 -23 -8 -25 9 -25 17 0 19 9 6 28 -7 11 -10 10 -15 -3z"/>
<path d="M2793 372 c-7 -7 -13 -21 -13 -30 0 -8 -10 -26 -22 -39 l-21 -23 26
0 c14 0 29 5 32 10 3 6 11 10 16 10 6 0 7 -4 4 -10 -3 -5 -2 -10 4 -10 11 0
27 68 17 77 -3 3 -1 12 5 19 15 18 -29 14 -48 -4z"/>
<path d="M2140 279 c-47 -33 -89 -65 -95 -71 -11 -12 124 80 165 112 52 41 12
18 -70 -41z"/>
<path d="M2696 233 c-4 -5 -11 -8 -14 -9 -4 0 -15 -4 -25 -9 -17 -7 -17 -9 -1
-26 18 -20 32 -15 87 29 l29 22 -35 0 c-18 0 -37 -3 -41 -7z m-16 -23 c0 -5
-5 -10 -11 -10 -5 0 -7 5 -4 10 3 6 8 10 11 10 2 0 4 -4 4 -10z"/>
<path d="M2620 175 c0 -9 -18 -33 -41 -55 -23 -21 -38 -43 -35 -48 3 -5 -15
-21 -39 -37 -25 -15 -45 -29 -45 -31 0 -2 23 -4 50 -4 29 0 50 5 50 11 0 5 -4
7 -10 4 -5 -3 -10 -4 -10 0 0 3 11 10 25 15 14 5 25 16 25 24 0 9 12 29 28 45
52 57 53 58 30 64 -11 3 -17 10 -13 16 3 6 1 11 -4 11 -6 0 -11 -7 -11 -15z"/>
<path d="M2260 16 c0 -9 5 -16 10 -16 6 0 10 4 10 9 0 6 -4 13 -10 16 -5 3
-10 -1 -10 -9z"/>
</g>
</svg>
